<?xml version="1.0" encoding="UTF-8"?>
<svg xmlns="http://www.w3.org/2000/svg" width="1024" height="1024" viewBox="0 0 1024 1024">
  <rect width="1024" height="1024" fill="#677389"/>
  <svg x="102.4" y="117.27" width="819.2" height="789.47" viewBox="0 0 958.32 923.44">
    <path d="M683.47,27.59c34.87,0,68.47,12.19,99.87,36.22,29.3,22.43,55.46,54.27,77.76,94.63,44.91,81.28,69.64,188.99,69.64,303.28s-24.73,222-69.64,303.28c-22.3,40.36-48.46,72.2-77.76,94.63-31.4,24.04-65,36.22-99.87,36.22s-68.47-12.19-99.87-36.22c-29.3-22.43-55.46-54.27-77.76-94.63-6.43-11.64-12.45-23.83-18.04-36.5-1.65-3.75-5.15-5.62-8.64-5.62s-6.98,1.87-8.64,5.62c-5.59,12.67-11.61,24.86-18.04,36.5-22.3,40.36-48.46,72.2-77.76,94.63-31.4,24.04-65,36.22-99.87,36.22s-68.47-12.19-99.87-36.22c-29.3-22.43-55.46-54.27-77.76-94.63-44.91-81.28-69.64-188.99-69.64-303.28s24.73-222,69.64-303.28c22.3-40.36,48.46-72.2,77.76-94.63,31.4-24.04,65-36.22,99.87-36.22s68.47,12.19,99.87,36.22c29.3,22.43,55.46,54.27,77.76,94.63,5.48,9.91,10.65,20.21,15.52,30.87,2.18,4.78,6.67,7.17,11.16,7.17s8.98-2.39,11.16-7.17c4.87-10.66,10.04-20.96,15.52-30.87,22.3-40.36,48.46-72.2,77.76-94.63,31.4-24.04,65-36.22,99.87-36.22M529.04,381.11c3.27,0,6.59-1.29,9.13-4.14,24.53-27.49,54.68-43.7,87.28-43.7,10.72,0,21.17,1.76,31.25,5.09,12.47,4.13,19.49,17.34,15.92,29.98l-27.78,98.4c-1.64,5.82,2.97,10.78,8.16,10.78,1.58,0,3.22-.46,4.75-1.5l59.4-40.56c4.27-2.92,9.05-4.28,13.76-4.28,9.79,0,19.24,5.89,23.06,15.94,13.05,34.3,20.53,74.27,20.53,116.95,0,127.47-66.73,238.24-149.05,238.24-14.17,0-27.87-3.28-40.86-9.37-1.28-.6-2.55-.87-3.75-.87-6.68,0-11.42,8.29-6.2,14.15,32.84,36.83,70.21,56.52,108.83,56.52,55.33,0,108.12-40.4,148.65-113.76,42.25-76.46,65.51-178.48,65.51-287.27s-23.27-210.81-65.51-287.27c-40.53-73.36-93.32-113.76-148.65-113.76s-108.12,40.4-148.65,113.76c-13.47,24.38-25,51.36-34.46,80.32-2.6,7.95-2.83,16.48-.72,24.57,7.56,28.98,13.29,59.43,17.07,90.87.81,6.77,6.5,10.9,12.34,10.9M69.43,488.09c3.53,0,7.05-2.05,8.13-6.42,21.43-86.77,75.7-148.4,139.27-148.4,10.72,0,21.17,1.76,31.25,5.09,12.47,4.13,19.49,17.34,15.92,29.98l-27.78,98.4c-1.64,5.82,2.97,10.78,8.16,10.78,1.58,0,3.22-.46,4.75-1.5l59.4-40.56c4.27-2.92,9.05-4.28,13.76-4.28,9.79,0,19.24,5.89,23.06,15.94,13.05,34.3,20.53,74.27,20.53,116.95,0,127.47-66.73,238.24-149.05,238.24-14.17,0-27.87-3.28-40.86-9.37-1.28-.6-2.55-.87-3.75-.87-6.68,0-11.42,8.29-6.2,14.15,32.84,36.83,70.21,56.52,108.83,56.52,55.33,0,108.12-40.4,148.65-113.76,15.41-27.89,28.28-59.18,38.43-92.96,16.87-56.13,26.2-119.12,27.02-184.8.04-3.16.06-6.33.06-9.51,0-41.35-3.37-81.72-9.86-120.09-4.36-25.75-10.12-50.6-17.23-74.23-10.15-33.77-23.02-65.07-38.43-92.96-40.53-73.36-93.32-113.76-148.65-113.76s-108.12,40.4-148.65,113.76c-42.25,76.46-65.51,178.48-65.51,287.27,0,6.06.07,12.11.22,18.13.13,5.35,4.33,8.25,8.53,8.25M683.47,0c-41.07,0-80.31,14.1-116.63,41.91-32.34,24.76-60.99,59.48-85.14,103.19-.85,1.54-1.69,3.09-2.53,4.65-.84-1.56-1.68-3.11-2.53-4.65-24.15-43.72-52.8-78.43-85.14-103.19C355.16,14.1,315.92,0,274.85,0s-80.31,14.1-116.63,41.91c-32.34,24.76-60.99,59.48-85.14,103.19C25.95,230.39,0,342.84,0,461.72s25.95,231.32,73.08,316.62c24.15,43.72,52.8,78.44,85.14,103.19,36.32,27.81,75.57,41.91,116.63,41.91s80.31-14.1,116.63-41.91c32.34-24.76,60.99-59.48,85.14-103.19.85-1.54,1.69-3.09,2.53-4.65.84,1.56,1.68,3.11,2.53,4.65,24.15,43.72,52.8,78.44,85.14,103.19,36.32,27.81,75.57,41.91,116.63,41.91s80.31-14.1,116.63-41.91c32.34-24.76,60.99-59.48,85.14-103.19,47.13-85.3,73.08-197.74,73.08-316.62s-25.95-231.32-73.08-316.62c-24.15-43.72-52.8-78.44-85.14-103.19C763.78,14.1,724.54,0,683.47,0h0Z" fill="#fff"/>
  </svg>
</svg>
